<svg xmlns="http://www.w3.org/2000/svg" viewBox="0 0 163.9224 163.9224"><g style="isolation:isolate"><circle cx="81.9612" cy="81.9612" r="81.9612" style="fill:#79af12"/><circle cx="103.06216" cy="103.0425" r="74.65254" transform="translate(-63.77683 81.97508) rotate(-45)" style="fill:#fffadc"/><circle cx="103.06216" cy="103.0425" r="68.91002" transform="translate(-42.54935 157.70216) rotate(-76.3071)" style="fill:#ff2e2e"/><path d="M148.805,115.30023c-2.3116-.6468-3.8265-2.3591-3.4974-3.8489.2235-1.5118,2.3373-2.5078,4.7074-2.2273s4.0649,2.0301,3.7716,3.9049C153.38369,114.98193,151.08959,115.94153,148.805,115.30023Z" transform="translate(-21.10099 -21.08133)"/><path d="M144.08209,126.72373a5.59314,5.59314,0,0,1-2.2024-2.2556,2.76369,2.76369,0,0,1-.2178-2.394c.6594-1.3776,3.0176-1.7628,5.1907-.8928,2.2577.9058,3.3806,3.01,2.5586,4.7211a2.74174,2.74174,0,0,1-2.1835,1.5241A5.01823,5.01823,0,0,1,144.08209,126.72373Z" transform="translate(-21.10099 -21.08133)"/><path d="M136.58,136.56033c-1.6676-1.7075-2.1923-4.0157-1.1621-5.146,1.0796-1.0898,3.2788-.9966,5.2123.4548,1.88561,1.412,2.6041,3.8799,1.284,5.2466C140.64019,138.52073,138.24759,138.26773,136.58,136.56033Z" transform="translate(-21.10099 -21.08133)"/><path d="M126.74339,144.06243c-1.1704-2.08-1.06359-4.414.2466-5.2016,1.241-.891,3.4175-.1326,4.89881,1.7496,1.47179,1.8681,1.45509,4.3356-.09041,5.4328C130.18059,147.03443,127.9138,146.14233,126.74339,144.06243Z" transform="translate(-21.10099 -21.08133)"/><path d="M115.31989,148.78533a5.64965,5.64965,0,0,1,.0338-3.1626,3.09735,3.09735,0,0,1,.6185-1.1116,2.09618,2.09618,0,0,1,.9275-.7047c1.4327-.528,3.3608.833,4.3013,3.0265s.2605,4.5091-1.524,5.1585a2.64725,2.64725,0,0,1-1.3401.1246,3.467,3.467,0,0,1-1.29109-.6205A4.969,4.969,0,0,1,115.31989,148.78533Z" transform="translate(-21.10099 -21.08133)"/><path d="M103.06219,150.44383c.028-2.3865,1.2897-4.3935,2.8182-4.4691,1.5352-.0153,3.0259,1.6525,3.3633,4.0206.3365,2.3575-.9062,4.564-2.8045,4.6047C104.54619,154.69723,103.03409,152.83033,103.06219,150.44383Z" transform="translate(-21.10099 -21.08133)"/><path d="M90.80439,148.78533c.6469-2.3116,2.3591-3.8265,3.8489-3.4974,1.5119.2235,2.5079,2.3373,2.2273,4.7074s-2.03,4.0649-3.9049,3.7716C91.1228,153.364,90.16319,151.06993,90.80439,148.78533Z" transform="translate(-21.10099 -21.08133)"/><path d="M79.38089,144.06243a5.59208,5.59208,0,0,1,2.2557-2.2024,2.76342,2.76342,0,0,1,2.3939-.2178c1.3776.6594,1.7629,3.0176.8928,5.1907-.9058,2.2576-3.0099,3.3806-4.7211,2.5586a2.74225,2.74225,0,0,1-1.5241-2.1835A5.01829,5.01829,0,0,1,79.38089,144.06243Z" transform="translate(-21.10099 -21.08133)"/><path d="M69.54439,136.56033c1.70741-1.6676,4.0156-2.1924,5.1459-1.1621,1.0898,1.0796.9967,3.2788-.4548,5.2122-1.412,1.8857-3.8798,2.6042-5.2465,1.2841C67.58389,140.62053,67.83689,138.22783,69.54439,136.56033Z" transform="translate(-21.10099 -21.08133)"/><path d="M62.04229,126.72373c2.0799-1.1705,4.414-1.0636,5.2016.2465.891,1.2411.1325,3.4176-1.7497,4.8989-1.868,1.4718-4.3356,1.4551-5.4328-.0904C59.07019,130.16083,59.96229,127.89413,62.04229,126.72373Z" transform="translate(-21.10099 -21.08133)"/><path d="M57.31929,115.30023a5.651,5.651,0,0,1,3.1627.0337,3.09958,3.09958,0,0,1,1.1115.6185,2.09692,2.09692,0,0,1,.7047.9276c.528,1.4327-.833,3.3608-3.0265,4.3013s-4.509.2605-5.1585-1.524a2.64835,2.64835,0,0,1-.1246-1.3401,3.47023,3.47023,0,0,1,.6205-1.2911A4.96936,4.96936,0,0,1,57.31929,115.30023Z" transform="translate(-21.10099 -21.08133)"/><path d="M55.66089,103.04253c2.3864.028,4.3934,1.2897,4.469,2.8182.0153,1.5351-1.6525,3.0258-4.0206,3.3633-2.35749.3364-4.564-.9062-4.6047-2.8045C51.40739,104.52653,53.27429,103.01453,55.66089,103.04253Z" transform="translate(-21.10099 -21.08133)"/><path d="M57.31929,90.78473c2.3117.6468,3.82651,2.3591,3.4974,3.8489-.2235,1.5119-2.3372,2.5078-4.7074,2.2273s-4.0649-2.03-3.7716-3.9049C52.74069,91.103,55.03469,90.14343,57.31929,90.78473Z" transform="translate(-21.10099 -21.08133)"/><path d="M62.04229,79.36123a5.59243,5.59243,0,0,1,2.2023,2.2557,2.76308,2.76308,0,0,1,.2178,2.3939c-.6594,1.3776-3.0175,1.7629-5.1907.8928-2.2576-.9057-3.3806-3.0099-2.5585-4.7211a2.74194,2.74194,0,0,1,2.1834-1.5241A5.0185,5.0185,0,0,1,62.04229,79.36123Z" transform="translate(-21.10099 -21.08133)"/><path d="M69.54439,69.52473c1.6675,1.7074,2.1923,4.0156,1.162,5.1459-1.0795,1.0898-3.2788.9966-5.2122-.4548-1.8857-1.412-2.6042-3.8799-1.2841-5.2465C65.48409,67.56423,67.8768,67.81723,69.54439,69.52473Z" transform="translate(-21.10099 -21.08133)"/><path d="M79.38089,62.02253c1.1705,2.08,1.0636,4.4141-.2465,5.2016-1.2411.891-3.41759.1326-4.8989-1.7496-1.47169-1.8681-1.455-4.3356.0905-5.4328C75.9438,59.05053,78.21049,59.94263,79.38089,62.02253Z" transform="translate(-21.10099 -21.08133)"/><path d="M90.80439,57.29963a5.651,5.651,0,0,1-.0337,3.1627,3.09743,3.09743,0,0,1-.6185,1.1115,2.09627,2.09627,0,0,1-.9276.7047c-1.4327.528-3.3607-.833-4.3013-3.0265s-.26049-4.509,1.524-5.1585a2.64745,2.64745,0,0,1,1.3401-.1246,3.46716,3.46716,0,0,1,1.2911.6205A4.96894,4.96894,0,0,1,90.80439,57.29963Z" transform="translate(-21.10099 -21.08133)"/><path d="M103.06219,55.64113c-.0281,2.3865-1.2898,4.3935-2.8183,4.4691-1.53509.0153-3.0258-1.6525-3.3633-4.0206-.3364-2.3575.9063-4.564,2.8045-4.6047C101.57819,51.38773,103.09019,53.25463,103.06219,55.64113Z" transform="translate(-21.10099 -21.08133)"/><path d="M115.31989,57.29963c-.6468,2.3117-2.35909,3.8265-3.8488,3.4975-1.5119-.2236-2.5079-2.3374-2.2274-4.7075s2.03011-4.0649,3.9049-3.7716C115.00159,52.721,115.96119,55.015,115.31989,57.29963Z" transform="translate(-21.10099 -21.08133)"/><path d="M126.74339,62.02253a5.59253,5.59253,0,0,1-2.25559,2.2024,2.76366,2.76366,0,0,1-2.394.2178c-1.37761-.6594-1.76281-3.0176-.89281-5.1907.90581-2.2576,3.01-3.3806,4.7211-2.5586a2.74234,2.74234,0,0,1,1.5242,2.1835A5.019,5.019,0,0,1,126.74339,62.02253Z" transform="translate(-21.10099 -21.08133)"/><path d="M136.58,69.52473c-1.7075,1.6675-4.0157,2.1923-5.146,1.1621-1.0897-1.0797-.9966-3.2789.45481-5.2123,1.412-1.8857,3.87989-2.6042,5.24659-1.2841C138.54039,65.46443,138.28739,67.85713,136.58,69.52473Z" transform="translate(-21.10099 -21.08133)"/><path d="M144.08209,79.36123c-2.08,1.1705-4.414,1.0636-5.2016-.2465-.891-1.2411-.1325-3.4176,1.7497-4.8989,1.868-1.4717,4.3355-1.4551,5.4327.0904C147.05409,75.92413,146.16209,78.19083,144.08209,79.36123Z" transform="translate(-21.10099 -21.08133)"/><path d="M148.805,90.78473a5.65068,5.65068,0,0,1-3.1626-.0337,3.09841,3.09841,0,0,1-1.11159-.6185,2.09544,2.09544,0,0,1-.70461-.9276c-.5281-1.4327.8329-3.3607,3.0264-4.3013s4.5091-.2605,5.1586,1.524a2.64957,2.64957,0,0,1,.12461,1.3401,3.46765,3.46765,0,0,1-.62061,1.2911A4.969,4.969,0,0,1,148.805,90.78473Z" transform="translate(-21.10099 -21.08133)"/><path d="M150.46349,103.04253c-2.3865-.028-4.3935-1.2898-4.469-2.8183-.0153-1.5351,1.6524-3.0258,4.0205-3.3633,2.3575-.3364,4.5641.9063,4.6047,2.8045C154.71689,101.55843,152.85,103.07053,150.46349,103.04253Z" transform="translate(-21.10099 -21.08133)"/><path d="M134.2928,115.14173a5.99762,5.99762,0,0,1-2.56671-1.8781,2.70848,2.70848,0,0,1-.6046-2.2346,2.48762,2.48762,0,0,1,1.71431-1.5793,5.99344,5.99344,0,0,1,3.15459-.2508,4.75963,4.75963,0,0,1,2.8218,1.5302,3.0008,3.0008,0,0,1,.6238,2.6614,2.78772,2.78772,0,0,1-1.95319,1.926A4.74141,4.74141,0,0,1,134.2928,115.14173Z" transform="translate(-21.10099 -21.08133)"/><path d="M127.804,125.59753a5.90249,5.90249,0,0,1-1.7024-2.6689,2.74154,2.74154,0,0,1,.2327-2.3161,2.66272,2.66272,0,0,1,2.17451-.8485,5.851,5.851,0,0,1,3.023.9057,4.849,4.849,0,0,1,2.08129,2.4558,2.826,2.826,0,0,1-.3849,2.7007,2.76211,2.76211,0,0,1-2.5018,1.098A4.81045,4.81045,0,0,1,127.804,125.59753Z" transform="translate(-21.10099 -21.08133)"/><path d="M117.98929,133.02043a5.83224,5.83224,0,0,1-.6209-3.09,2.61038,2.61038,0,0,1,1.0426-2.0907,1.93616,1.93616,0,0,1,1.08881-.2594,3.36669,3.36669,0,0,1,1.23609.2381,5.92128,5.92128,0,0,1,2.5031,1.9432,4.79438,4.79438,0,0,1,1.0507,3.0292,3.25742,3.25742,0,0,1-.3506,1.4016,2.80664,2.80664,0,0,1-.9714.992,2.87481,2.87481,0,0,1-2.7234.1388A4.86364,4.86364,0,0,1,117.98929,133.02043Z" transform="translate(-21.10099 -21.08133)"/><path d="M106.15439,136.40413c-.1727-2.3331.8411-4.4729,2.2746-4.6824a2.58687,2.58687,0,0,1,1.1006.122,3.23168,3.23168,0,0,1,1.06721.6799,6.02948,6.02948,0,0,1,1.63269,2.7354,4.7181,4.7181,0,0,1-.1239,3.1872,2.82733,2.82733,0,0,1-2.0973,1.7734C108.06039,140.52073,106.33669,138.83093,106.15439,136.40413Z" transform="translate(-21.10099 -21.08133)"/><path d="M93.89489,135.259a6.02766,6.02766,0,0,1,1.6327-2.7354,3.22946,3.22946,0,0,1,1.06721-.6799,2.58664,2.58664,0,0,1,1.10059-.122c1.43341.2095,2.4473,2.3493,2.2745,4.6824-.1823,2.4268-1.906,4.1166-3.8539,3.8155a2.82733,2.82733,0,0,1-2.0973-1.7734A4.71878,4.71878,0,0,1,93.89489,135.259Z" transform="translate(-21.10099 -21.08133)"/><path d="M82.88529,129.76163a5.92152,5.92152,0,0,1,2.5032-1.9432,3.36632,3.36632,0,0,1,1.2361-.2381,1.93561,1.93561,0,0,1,1.0887.2594,2.61008,2.61008,0,0,1,1.0426,2.0907,5.83119,5.83119,0,0,1-.6209,3.09,4.86346,4.86346,0,0,1-2.2549,2.3028,2.875,2.875,0,0,1-2.7235-.1388,2.80551,2.80551,0,0,1-.9713-.992,3.25613,3.25613,0,0,1-.3506-1.4016A4.79484,4.79484,0,0,1,82.88529,129.76163Z" transform="translate(-21.10099 -21.08133)"/><path d="M74.59259,120.66973a5.85068,5.85068,0,0,1,3.023-.9057,2.66263,2.66263,0,0,1,2.1744.8485,2.74082,2.74082,0,0,1,.2327,2.3161,5.90165,5.90165,0,0,1-1.7024,2.6689,4.80993,4.80993,0,0,1-2.9224,1.3267,2.76221,2.76221,0,0,1-2.5018-1.098,2.82626,2.82626,0,0,1-.3848-2.7007A4.84852,4.84852,0,0,1,74.59259,120.66973Z" transform="translate(-21.10099 -21.08133)"/><path d="M70.134,109.19893a5.99348,5.99348,0,0,1,3.1546.2508,2.48727,2.48727,0,0,1,1.71421,1.5793,2.70878,2.70878,0,0,1-.60451,2.2346,5.99826,5.99826,0,0,1-2.5667,1.8781,4.74144,4.74144,0,0,1-3.19.1748,2.78768,2.78768,0,0,1-1.9533-1.926,3.00055,3.00055,0,0,1,.6239-2.6614A4.75937,4.75937,0,0,1,70.134,109.19893Z" transform="translate(-21.10099 -21.08133)"/><path d="M70.134,96.886a6.0629,6.0629,0,0,1,2.8817,1.3732,2.536,2.536,0,0,1,.9885,2.0851c-.0647,1.4512-2.0736,2.6585-4.4598,2.6982s-4.2554-1.522-4.1475-3.4865a2.93133,2.93133,0,0,1,1.5818-2.2503A4.69536,4.69536,0,0,1,70.134,96.886Z" transform="translate(-21.10099 -21.08133)"/><path d="M74.59259,85.41523a5.94428,5.94428,0,0,1,2.1685,2.3152,3.14551,3.14551,0,0,1,.3465,1.206,1.98776,1.98776,0,0,1-.1562,1.1081,2.55338,2.55338,0,0,1-1.99,1.2289,5.80838,5.80838,0,0,1-3.1298-.3301,4.88345,4.88345,0,0,1-2.5064-2.0335,2.9342,2.9342,0,0,1-.1081-2.7236,2.73476,2.73476,0,0,1,.8968-1.0598,3.43845,3.43845,0,0,1,1.3684-.4762A4.7792,4.7792,0,0,1,74.59259,85.41523Z" transform="translate(-21.10099 -21.08133)"/><path d="M82.88529,76.32343c1.4151,1.9363,1.5706,4.1491.5342,5.1701-1.1173.932-3.2939.5882-5.0992-1.0061-1.7742-1.5631-2.2232-4.0957-.72549-5.3798C79.01659,73.74023,81.48519,74.40523,82.88529,76.32343Z" transform="translate(-21.10099 -21.08133)"/><path d="M93.89489,70.82593a5.84573,5.84573,0,0,1,.0387,3.1493,2.50991,2.50991,0,0,1-1.4085,1.8662,2.74677,2.74677,0,0,1-2.2839-.3998,5.96974,5.96974,0,0,1-2.1062-2.3771,4.76059,4.76059,0,0,1-.47219-3.1642,2.75959,2.75959,0,0,1,1.73809-2.1179,2.98279,2.98279,0,0,1,2.7034.3612A4.85967,4.85967,0,0,1,93.89489,70.82593Z" transform="translate(-21.10099 -21.08133)"/><path d="M106.15439,69.68083c-.2571,2.3727-1.6418,4.2499-3.0922,4.1655-1.45039.0844-2.8351-1.7928-3.0923-4.1655s1.127-4.3897,3.0923-4.4778C105.02739,65.29113,106.41159,67.30813,106.15439,69.68083Z" transform="translate(-21.10099 -21.08133)"/><path d="M117.98929,73.06453a5.96892,5.96892,0,0,1-2.1062,2.3771,2.7465,2.7465,0,0,1-2.2838.3998,2.51,2.51,0,0,1-1.4086-1.8662,5.84582,5.84582,0,0,1,.0388-3.1493,4.85915,4.85915,0,0,1,1.7906-2.6823,2.98275,2.98275,0,0,1,2.7034-.3612,2.75932,2.75932,0,0,1,1.738,2.1179A4.76006,4.76006,0,0,1,117.98929,73.06453Z" transform="translate(-21.10099 -21.08133)"/><path d="M127.804,80.48743c-1.8053,1.5943-3.9818,1.9381-5.0991,1.0061-1.0364-1.021-.881-3.2338.5341-5.1701,1.4001-1.9182,3.86881-2.5832,5.2906-1.2158C130.02719,76.39173,129.57829,78.92433,127.804,80.48743Z" transform="translate(-21.10099 -21.08133)"/><path d="M134.2928,90.94333a5.80878,5.80878,0,0,1-3.12991.3301,2.55372,2.55372,0,0,1-1.99-1.2289,1.98676,1.98676,0,0,1-.15609-1.1081,3.14329,3.14329,0,0,1,.34639-1.206,5.9438,5.9438,0,0,1,2.16861-2.3152,4.779,4.779,0,0,1,3.11029-.765,3.43854,3.43854,0,0,1,1.3683.4762,2.735,2.735,0,0,1,.8969,1.0598,2.93449,2.93449,0,0,1-.1081,2.7236A4.88346,4.88346,0,0,1,134.2928,90.94333Z" transform="translate(-21.10099 -21.08133)"/><path d="M136.58,103.04253c-2.38619-.0397-4.39519-1.247-4.4599-2.6982a2.53606,2.53606,0,0,1,.9886-2.0851,6.062,6.062,0,0,1,2.8817-1.3732,4.69545,4.69545,0,0,1,3.1553.4197,2.9318,2.9318,0,0,1,1.5818,2.2503C140.83539,101.52053,138.96619,103.08213,136.58,103.04253Z" transform="translate(-21.10099 -21.08133)"/><g style="opacity:0.4;mix-blend-mode:multiply"><path d="M103.06219,21.08133v163.9224a81.9612,81.9612,0,0,0,0-163.9224Z" transform="translate(-21.10099 -21.08133)" style="fill:#79af12"/></g></g></svg>